<?xml version="1.0" encoding="UTF-8"?>
<svg id="Layer_1" xmlns="http://www.w3.org/2000/svg" version="1.1" viewBox="0 0 138.59 141.63">
  <!-- Generator: Adobe Illustrator 30.3.0, SVG Export Plug-In . SVG Version: 2.1.3 Build 182)  -->
  <defs>
    <style>
      .st0 {
        fill: #fff;
      }

      .st1 {
        fill: #0065f4;
      }
    </style>
  </defs>
  <polygon class="st1" points="138.59 106.22 138.59 35.41 69.29 0 0 35.41 0 106.22 69.29 141.63 138.59 106.22"/>
  <g>
    <path class="st0" d="M49.04,86.76c-5.1,0-9.33-1.67-12.7-5.03-3.37-3.35-5.05-7.76-5.05-13.22s1.68-9.88,5.05-13.22c3.37-3.35,7.6-5.03,12.7-5.03,4.23,0,7.85,1.19,10.85,3.58,3,2.38,4.9,5.61,5.7,9.67h-7.4c-.57-2.03-1.63-3.63-3.2-4.8-1.57-1.17-3.55-1.75-5.95-1.75-3.3,0-5.9,1.06-7.8,3.17-1.9,2.12-2.85,4.91-2.85,8.38s.95,6.26,2.85,8.38c1.9,2.12,4.5,3.17,7.8,3.17,2.4,0,4.38-.58,5.95-1.75,1.57-1.17,2.63-2.77,3.2-4.8h7.4c-.8,4.07-2.7,7.29-5.7,9.67-3,2.38-6.62,3.58-10.85,3.58Z"/>
    <path class="st0" d="M70.77,67.29c-.78-.78-1.17-1.74-1.17-2.88s.4-2.1,1.2-2.9,1.77-1.2,2.9-1.2,2.15.4,2.95,1.2,1.2,1.77,1.2,2.9-.4,2.09-1.2,2.88-1.78,1.17-2.95,1.17-2.14-.39-2.92-1.17ZM70.79,85.59c-.8-.78-1.2-1.76-1.2-2.92s.4-2.14,1.2-2.93c.8-.78,1.77-1.17,2.9-1.17s2.15.4,2.95,1.2,1.2,1.77,1.2,2.9-.4,2.1-1.2,2.9-1.78,1.2-2.95,1.2-2.1-.39-2.9-1.17Z"/>
    <path class="st0" d="M107.29,57.81h-16.35v6.85h14.25v6.7h-14.25v7.85h16.35v6.8h-23.45v-35h23.45v6.8Z"/>
  </g>
</svg>